<svg width="35" height="35" viewBox="0 0 35 35" fill="none" xmlns="http://www.w3.org/2000/svg">
<path d="M25.625 2.87451C26.0518 2.44772 26.5585 2.10916 27.1161 1.87818C27.6737 1.6472 28.2714 1.52832 28.875 1.52832C29.4786 1.52832 30.0762 1.6472 30.6339 1.87818C31.1915 2.10916 31.6982 2.44772 32.125 2.87451C32.5518 3.30131 32.8903 3.80799 33.1213 4.36563C33.3523 4.92326 33.4712 5.52093 33.4712 6.12451C33.4712 6.7281 33.3523 7.32577 33.1213 7.8834C32.8903 8.44104 32.5518 8.94772 32.125 9.37452L10.1875 31.312L1.25 33.7495L3.6875 24.812L25.625 2.87451Z" stroke="black" stroke-width="2" stroke-linecap="round" stroke-linejoin="round"/>
</svg>
